<?xml version="1.0" encoding="iso-8859-1"?>
<!-- Generator: Adobe Illustrator 19.0.0, SVG Export Plug-In . SVG Version: 6.00 Build 0)  -->
<svg version="1.1" id="Capa_1" xmlns="http://www.w3.org/2000/svg" xmlns:xlink="http://www.w3.org/1999/xlink" x="0px" y="0px"
	 viewBox="0 0 512.001 512.001" style="enable-background:new 0 0 512.001 512.001;" xml:space="preserve">
<g>
	<g>
		<path d="M450.701,0L164.902,99.286v300.085c-10.56-6.432-23.207-10.19-36.797-10.19c-36.836,0-66.806,27.549-66.806,61.41
			s29.968,61.41,66.806,61.41s66.806-27.549,66.806-61.41V218.203l225.781-78.435v195.871c-10.56-6.432-23.207-10.19-36.797-10.19
			c-36.836,0-66.806,27.549-66.806,61.41s29.969,61.41,66.806,61.41c36.837,0,66.806-27.549,66.806-61.41
			c0-0.149-0.011-0.296-0.012-0.445h0.012V0z"/>
	</g>
</g>
<g>
</g>
<g>
</g>
<g>
</g>
<g>
</g>
<g>
</g>
<g>
</g>
<g>
</g>
<g>
</g>
<g>
</g>
<g>
</g>
<g>
</g>
<g>
</g>
<g>
</g>
<g>
</g>
<g>
</g>
</svg>
